<?xml version="1.0" standalone="no"?>
<!DOCTYPE svg PUBLIC "-//W3C//DTD SVG 20010904//EN"
 "http://www.w3.org/TR/2001/REC-SVG-20010904/DTD/svg10.dtd">
<svg version="1.0" xmlns="http://www.w3.org/2000/svg"
 width="200.000000pt" height="200.000000pt" viewBox="0 0 200.000000 200.000000"
 preserveAspectRatio="xMidYMid meet">
<metadata>
Created by potrace 1.10, written by Peter Selinger 2001-2011
</metadata>
<g transform="translate(0.000000,152.000000) scale(0.050000,-0.050000)"
fill="#941490" stroke="none">
<path d="M1370 2776 c-192 -67 -234 -174 -249 -641 -15 -424 -24 -449 -174
-473 l-77 -13 -6 -124 -6 -125 62 0 c162 0 185 -54 201 -470 19 -528 116 -650
493 -626 l96 6 0 110 0 110 -70 5 c-206 16 -223 49 -239 476 -11 291 -17 331
-64 425 -42 86 -46 108 -24 127 51 42 83 227 95 542 15 411 36 454 226 455 80
0 84 7 71 135 l-10 105 -133 -2 c-72 0 -159 -11 -192 -22z m286 -13 c70 -44
20 -172 -72 -184 -169 -23 -202 -108 -203 -529 -1 -271 -21 -386 -80 -468 -34
-47 -34 -52 16 -149 48 -92 53 -125 64 -434 14 -407 61 -499 258 -499 34 0 41
-13 41 -80 l0 -80 -145 0 c-311 0 -375 97 -394 602 -16 415 -25 434 -236 490
-79 21 -27 178 70 213 143 51 151 74 167 475 16 397 31 466 123 555 87 84 316
135 391 88z"/>
<path d="M1419 2713 c-195 -64 -222 -135 -238 -607 -14 -445 -22 -461 -236
-518 -50 -13 -30 -128 22 -128 54 0 142 -63 177 -127 14 -25 29 -183 37 -385
18 -476 65 -558 339 -583 l120 -11 0 58 c0 48 -9 59 -51 61 -196 11 -233 85
-249 507 -14 352 -37 447 -121 506 l-44 32 60 60 c80 80 105 193 105 478 0
417 46 535 217 558 75 10 83 16 83 69 0 65 -81 77 -221 30z"/>
<path d="M4293 2787 c-7 -8 -13 -62 -13 -120 l0 -107 81 0 c181 0 201 -45 217
-491 12 -315 17 -349 66 -448 52 -106 52 -107 15 -159 -57 -78 -78 -206 -79
-472 -1 -370 -39 -450 -214 -450 l-86 0 0 -120 0 -120 115 0 c373 0 438 90
473 643 27 422 31 433 170 451 l84 12 -6 122 c-5 104 -12 122 -46 128 -171 25
-181 48 -197 461 -19 481 -68 599 -270 660 -84 25 -288 31 -310 10z m367 -64
c136 -72 165 -163 181 -562 18 -441 37 -491 204 -532 85 -21 85 -209 -1 -209
-154 0 -187 -80 -203 -490 -21 -508 -133 -651 -469 -596 -83 13 -117 166 -37
166 216 1 251 65 266 490 12 322 16 351 65 438 l52 93 -53 102 c-50 96 -54
124 -65 455 -14 433 -45 502 -224 502 l-76 0 0 90 0 90 145 0 c103 0 166 -11
215 -37z"/>
<path d="M4340 2682 c0 -56 6 -62 61 -62 186 0 221 -77 239 -520 15 -370 30
-436 116 -526 l54 -56 -43 -34 c-94 -75 -114 -154 -126 -504 -15 -424 -51
-499 -236 -500 -59 0 -65 -5 -65 -63 l0 -63 120 11 c278 26 324 104 340 574 7
214 21 368 36 394 35 64 123 127 177 127 60 0 70 114 12 133 -202 64 -210 84
-224 537 -16 494 -58 566 -346 601 l-115 14 0 -63z"/>
<path d="M1995 2252 c-224 -81 -275 -207 -275 -682 0 -619 75 -700 650 -700
534 0 589 49 590 521 0 327 18 309 -310 309 -307 0 -310 -2 -310 -170 0 -156
16 -171 179 -166 l131 4 -119 7 c-158 10 -174 26 -167 163 l6 112 280 0 280 0
0 -284 c0 -441 -41 -476 -560 -476 -569 0 -620 55 -620 671 0 467 26 551 190
634 104 51 498 80 710 51 l120 -16 58 -116 c74 -148 93 -140 -349 -150 -474
-12 -439 20 -439 -398 0 -403 -12 -389 336 -382 238 6 254 9 256 46 1 30 0 32
-6 5 -12 -50 -485 -53 -535 -4 -41 42 -46 621 -6 675 22 29 77 34 415 39 l390
5 6 50 c3 29 -22 96 -60 160 l-66 110 -350 4 c-253 4 -371 -3 -425 -22z"/>
<path d="M3122 2253 c-16 -20 -21 -219 -17 -695 l5 -668 163 -6 c193 -7 180
-27 166 276 l-11 230 -4 -245 -4 -245 -138 0 c-183 0 -177 -37 -149 905 l13
435 137 0 137 0 0 -241 c0 -135 8 -237 18 -230 34 21 27 443 -9 479 -41 42
-273 45 -307 5z"/>
<path d="M3808 2156 c-54 -68 -154 -194 -222 -279 -68 -85 -113 -150 -100
-145 13 5 113 121 222 259 l197 249 180 0 c141 0 176 -5 161 -25 -10 -14 -125
-158 -254 -320 -152 -190 -229 -303 -220 -320 9 -14 127 -171 263 -350 l248
-325 -178 0 c-207 0 -181 -19 -434 315 -131 173 -164 205 -208 203 l-53 -3 54
-12 c39 -10 105 -82 244 -266 l190 -253 196 -8 c244 -10 252 -3 142 128 -49
58 -173 217 -276 352 l-187 245 61 65 c33 35 147 174 253 308 106 134 202 249
213 256 57 35 1 50 -187 50 l-207 0 -98 -124z"/>
<path d="M3180 1575 l0 -635 99 0 100 0 5 265 6 265 70 6 c68 5 75 -1 276
-265 l206 -271 132 0 133 0 -42 45 c-112 122 -466 603 -458 623 6 12 85 112
176 223 92 110 197 238 234 285 l66 84 -128 0 -129 0 -199 -255 c-185 -237
-204 -255 -273 -261 l-74 -6 0 259 0 259 -100 7 -100 7 0 -635z"/>
<path d="M1964 2167 c-154 -76 -195 -238 -175 -694 21 -497 61 -533 584 -533
491 0 527 31 527 449 l0 231 -250 0 -250 0 0 -102 0 -102 145 7 145 7 6 -114
c9 -178 -8 -188 -333 -183 -376 6 -391 26 -380 490 7 258 10 277 55 325 l49
52 376 0 c208 0 377 5 377 11 0 7 -23 52 -52 100 l-52 89 -353 0 c-284 -1
-366 -7 -419 -33z"/>
</g>
</svg>
